<?xml version="1.0" standalone="no"?>
<!DOCTYPE svg PUBLIC "-//W3C//DTD SVG 20010904//EN"
 "http://www.w3.org/TR/2001/REC-SVG-20010904/DTD/svg10.dtd">
<svg version="1.0" xmlns="http://www.w3.org/2000/svg"
 width="301.000000pt" height="301.000000pt" viewBox="0 0 301.000000 301.000000"
 preserveAspectRatio="xMidYMid meet">
<metadata>
Created by potrace 1.11, written by Peter Selinger 2001-2013
</metadata>
<g transform="translate(0.000000,301.000000) scale(0.100000,-0.100000)"
fill="#000000" stroke="none">
<path d="M379 2982 c0 -15 -1 -634 -1 -1377 l-1 -1350 731 -2 c403 0 732 2
733 5 1 10 1 114 0 130 -1 9 -138 12 -651 12 -357 0 -651 3 -651 8 -1 4 -2
590 -3 1302 l-1 1295 -77 2 -78 3 -1 -28z"/>
<path d="M1209 2638 c-1 -16 -1 -39 -1 -53 0 -67 -66 -61 630 -61 l627 0 3
-1260 2 -1260 73 2 c39 1 74 2 77 3 7 1 7 2651 0 2652 -3 1 -321 2 -707 3
l-703 1 -1 -27z"/>
</g>
</svg>
